<svg width="20" height="21" viewBox="0 0 20 21" fill="none" xmlns="http://www.w3.org/2000/svg">
<path d="M9 9.52271V5.52271H11V9.52271H15V11.5227H11V15.5227H9V11.5227H5V9.52271H9ZM10 20.5227C4.477 20.5227 0 16.0457 0 10.5227C0 4.99971 4.477 0.522705 10 0.522705C15.523 0.522705 20 4.99971 20 10.5227C20 16.0457 15.523 20.5227 10 20.5227ZM10 18.5227C12.1217 18.5227 14.1566 17.6799 15.6569 16.1796C17.1571 14.6793 18 12.6444 18 10.5227C18 8.40097 17.1571 6.36614 15.6569 4.86585C14.1566 3.36556 12.1217 2.52271 10 2.52271C7.87827 2.52271 5.84344 3.36556 4.34315 4.86585C2.84285 6.36614 2 8.40097 2 10.5227C2 12.6444 2.84285 14.6793 4.34315 16.1796C5.84344 17.6799 7.87827 18.5227 10 18.5227Z" fill="#00758B"/>
</svg>
