<svg width="41" height="47" viewBox="0 0 41 47" fill="none" xmlns="http://www.w3.org/2000/svg">
    <path d="M36.0183 47H4.98633C4.90625 46.9629 4.82337 46.9323 4.73848 46.9082C3.59756 46.6811 2.56994 46.0672 1.82908 45.1703C1.08822 44.2735 0.679491 43.1484 0.671875 41.9851C0.671875 29.6617 0.671875 17.3383 0.671875 5.01486C0.680395 3.93712 1.03202 2.89012 1.67575 2.0257C2.31948 1.16129 3.22184 0.52442 4.25195 0.207461C4.4943 0.133105 4.74123 0.0688477 4.98633 0H24.5391C24.8723 0.259785 25.2367 0.488359 25.5332 0.784863C30.2455 5.48058 34.9522 10.1791 39.6534 14.8803C39.8751 15.0878 40.0499 15.3403 40.1663 15.6208C40.2826 15.9013 40.3378 16.2034 40.3281 16.5069C40.3153 23.142 40.3125 29.7768 40.3199 36.4112C40.3199 38.2306 40.3364 40.0501 40.3153 41.8695C40.2942 43.632 39.5974 45.0934 38.1213 46.0756C37.4953 46.4942 36.7242 46.698 36.0183 47ZM27.8722 24.3656C27.7134 24.5171 27.5913 24.6291 27.4738 24.7457C24.8123 27.406 22.1502 30.0681 19.4875 32.732C18.6191 33.5995 17.9178 33.5995 17.0484 32.732C15.1268 30.8049 13.204 28.8775 11.2799 26.9497C11.1697 26.8183 11.0713 26.6773 10.9862 26.5284C10.8209 26.6697 10.7484 26.7248 10.6842 26.7882C8.336 29.1333 5.99089 31.482 3.64885 33.8345C3.50914 34.0043 3.43345 34.2177 3.43496 34.4376C3.42578 36.839 3.42578 39.2404 3.42578 41.6418C3.42578 43.3043 4.37863 44.2461 6.05576 44.2461H34.9213C36.6076 44.2461 37.5265 43.3281 37.5302 41.6363C37.5347 39.2496 37.5302 36.8629 37.5375 34.4762C37.5439 34.3338 37.5192 34.1918 37.4649 34.06C37.4107 33.9282 37.3283 33.8099 37.2236 33.7133C35.3876 31.8939 33.5584 30.0675 31.7359 28.234C30.46 26.9598 29.1867 25.682 27.8722 24.3656ZM22.7949 2.76951C22.6554 2.76217 22.5663 2.75391 22.4773 2.75391C16.9573 2.75391 11.436 2.75391 5.91348 2.75391C4.3823 2.7585 3.42578 3.75174 3.42578 5.31779C3.42578 13.4247 3.42578 21.5316 3.42578 29.6385C3.42578 29.7642 3.44322 29.8909 3.4524 30.0167L3.56348 30.0809C3.65605 29.9409 3.75819 29.8075 3.86916 29.6816C5.81219 27.7318 7.75798 25.7839 9.70652 23.8378C10.5382 23.0116 11.2505 23.0043 12.074 23.8268C14.0219 25.7729 15.9692 27.7196 17.9159 29.6669C18.0297 29.7798 18.1491 29.8863 18.3299 30.0561C18.4335 29.9088 18.545 29.7672 18.6641 29.632C21.3335 26.9571 24.0045 24.2846 26.677 21.6145C27.5032 20.7883 28.221 20.7975 29.05 21.6255L37.0978 29.6724C37.2098 29.7844 37.331 29.8872 37.4971 30.0396V17.5231H36.9234C33.9253 17.5231 30.9263 17.535 27.9273 17.5231C25.357 17.5093 23.2952 15.8093 22.8895 13.2766C22.7316 12.2907 22.8032 11.2662 22.7977 10.2583C22.7949 7.77703 22.7949 5.30035 22.7949 2.76951ZM25.5488 4.83402V5.29301C25.5488 7.55764 25.5773 9.82227 25.5387 12.086C25.5149 13.5198 26.3649 14.7866 28.2119 14.7481C30.46 14.7004 32.7099 14.7371 34.9589 14.7352C35.1177 14.7352 35.2756 14.7187 35.4243 14.7104L25.5488 4.83402Z"
          fill="#2877EE"/>
</svg>
