<svg width="21" height="21" viewBox="0 0 21 21" fill="none" xmlns="http://www.w3.org/2000/svg">
<path d="M9.08607 0C14.1016 0 18.1721 4.0992 18.1721 9.15C18.1721 14.2008 14.1016 18.3 9.08607 18.3C4.07056 18.3 0 14.2008 0 9.15C0 4.0992 4.07056 0 9.08607 0ZM9.08607 16.2667C12.99 16.2667 16.153 13.0814 16.153 9.15C16.153 5.21753 12.99 2.03333 9.08607 2.03333C5.18108 2.03333 2.01913 5.21753 2.01913 9.15C2.01913 13.0814 5.18108 16.2667 9.08607 16.2667ZM17.6522 16.3388L20.5083 19.214L19.0797 20.6526L16.2247 17.7764L17.6522 16.3388Z" fill="#2877EE"/>
</svg>
