<svg width="15" height="16" viewBox="0 0 15 16" fill="none" xmlns="http://www.w3.org/2000/svg">
<path d="M0.571117 0.0464914L14.8005 7.67111C14.8609 7.70352 14.9113 7.75113 14.9464 7.80898C14.9815 7.86683 15 7.9328 15 8C15 8.0672 14.9815 8.13317 14.9464 8.19102C14.9113 8.24887 14.8609 8.29648 14.8005 8.32889L0.571117 15.9535C0.512444 15.985 0.446372 16.001 0.379414 16C0.312456 15.9989 0.246924 15.981 0.189275 15.9478C0.131627 15.9146 0.0838537 15.8673 0.0506633 15.8106C0.0174729 15.754 1.14651e-05 15.6899 0 15.6246V0.375385C1.14651e-05 0.310143 0.0174729 0.24603 0.0506633 0.189365C0.0838537 0.1327 0.131627 0.0854393 0.189275 0.0522411C0.246924 0.0190429 0.312456 0.00105307 0.379414 4.48448e-05C0.446372 -0.000963385 0.512444 0.0150448 0.571117 0.0464914ZM1.54148 8.7509V13.7196L12.2162 8L1.54148 2.28041V7.2491H5.39517V8.7509H1.54148Z" fill="#15274B"/>
</svg>
