<svg width="22" height="23" viewBox="0 0 22 23" fill="none" xmlns="http://www.w3.org/2000/svg">
<path d="M7.58579 3.517L10.1928 0.91722C10.3803 0.730268 10.6346 0.625244 10.8998 0.625244C11.165 0.625244 11.4193 0.730268 11.6068 0.91722L14.2138 3.517H17.8998C18.165 3.517 18.4194 3.62206 18.6069 3.80908C18.7944 3.9961 18.8998 4.24975 18.8998 4.51423V8.19002L21.5068 10.7898C21.6943 10.9768 21.7996 11.2304 21.7996 11.4948C21.7996 11.7593 21.6943 12.0129 21.5068 12.1999L18.8998 14.7997V18.4755C18.8998 18.7399 18.7944 18.9936 18.6069 19.1806C18.4194 19.3676 18.165 19.4727 17.8998 19.4727H14.2138L11.6068 22.0725C11.4193 22.2594 11.165 22.3644 10.8998 22.3644C10.6346 22.3644 10.3803 22.2594 10.1928 22.0725L7.58579 19.4727H3.89979C3.63457 19.4727 3.38022 19.3676 3.19268 19.1806C3.00514 18.9936 2.89979 18.7399 2.89979 18.4755V14.7997L0.292787 12.1999C0.105315 12.0129 0 11.7593 0 11.4948C0 11.2304 0.105315 10.9768 0.292787 10.7898L2.89979 8.19002V4.51423C2.89979 4.24975 3.00514 3.9961 3.19268 3.80908C3.38022 3.62206 3.63457 3.517 3.89979 3.517H7.58579ZM4.89979 5.51146V9.01673L2.41479 11.4948L4.89979 13.973V17.4782H8.41479L10.8998 19.9563L13.3848 17.4782H16.8998V13.973L19.3848 11.4948L16.8998 9.01673V5.51146H13.3848L10.8998 3.03334L8.41479 5.51146H4.89979ZM10.8998 15.4838C9.83892 15.4838 8.82151 15.0635 8.07136 14.3154C7.32122 13.5674 6.89979 12.5528 6.89979 11.4948C6.89979 10.4369 7.32122 9.42232 8.07136 8.67425C8.82151 7.92618 9.83892 7.50592 10.8998 7.50592C11.9607 7.50592 12.9781 7.92618 13.7282 8.67425C14.4784 9.42232 14.8998 10.4369 14.8998 11.4948C14.8998 12.5528 14.4784 13.5674 13.7282 14.3154C12.9781 15.0635 11.9607 15.4838 10.8998 15.4838ZM10.8998 13.4893C11.4302 13.4893 11.9389 13.2792 12.314 12.9051C12.6891 12.5311 12.8998 12.0238 12.8998 11.4948C12.8998 10.9659 12.6891 10.4586 12.314 10.0845C11.9389 9.71051 11.4302 9.50038 10.8998 9.50038C10.3694 9.50038 9.86065 9.71051 9.48557 10.0845C9.1105 10.4586 8.89979 10.9659 8.89979 11.4948C8.89979 12.0238 9.1105 12.5311 9.48557 12.9051C9.86065 13.2792 10.3694 13.4893 10.8998 13.4893Z" fill="#00758B"/>
</svg>
