<svg width="18" height="14" viewBox="0 0 18 14" fill="none" xmlns="http://www.w3.org/2000/svg">
<path d="M4.68201 3.96604e-06C3.74226 -0.0151978 2.8257 0.292147 2.08508 0.870807C1.34447 1.44947 0.824559 2.26448 0.612011 3.18C0.397888 4.21899 0.605249 5.30047 1.18848 6.18657C1.77171 7.07267 2.68304 7.69081 3.72201 7.905L3.74901 7.91C4.01822 7.96994 4.29321 8.00012 4.56901 8V14H6.56901V2H8.56901V14H10.569V2H12.569V3.96604e-06H4.68201ZM2.53201 4C2.53201 3.46957 2.74272 2.96086 3.1178 2.58579C3.49287 2.21072 4.00158 2 4.53201 2V6C4.00158 6 3.49287 5.78929 3.1178 5.41422C2.74272 5.03914 2.53201 4.53044 2.53201 4ZM17.472 12.491C17.472 12.7877 17.384 13.0777 17.2192 13.3244C17.0544 13.571 16.8201 13.7633 16.546 13.8768C16.2719 13.9904 15.9703 14.0201 15.6794 13.9622C15.3884 13.9043 15.1211 13.7614 14.9114 13.5517C14.7016 13.3419 14.5587 13.0746 14.5008 12.7836C14.443 12.4927 14.4727 12.1911 14.5862 11.917C14.6997 11.6429 14.892 11.4086 15.1387 11.2438C15.3853 11.079 15.6753 10.991 15.972 10.991C16.3698 10.991 16.7514 11.149 17.0327 11.4303C17.314 11.7116 17.472 12.0932 17.472 12.491ZM17.472 8.491C17.472 8.78768 17.384 9.07769 17.2192 9.32436C17.0544 9.57103 16.8201 9.76329 16.546 9.87682C16.2719 9.99035 15.9703 10.0201 15.6794 9.96218C15.3884 9.9043 15.1211 9.76144 14.9114 9.55166C14.7016 9.34189 14.5587 9.07461 14.5008 8.78364C14.443 8.49267 14.4727 8.19107 14.5862 7.91698C14.6997 7.64289 14.892 7.40862 15.1387 7.2438C15.3853 7.07898 15.6753 6.991 15.972 6.991C16.3698 6.991 16.7514 7.14904 17.0327 7.43034C17.314 7.71165 17.472 8.09318 17.472 8.491ZM17.472 4.491C17.472 4.78768 17.384 5.07769 17.2192 5.32436C17.0544 5.57103 16.8201 5.76329 16.546 5.87682C16.2719 5.99036 15.9703 6.02006 15.6794 5.96218C15.3884 5.9043 15.1211 5.76144 14.9114 5.55166C14.7016 5.34189 14.5587 5.07461 14.5008 4.78364C14.443 4.49267 14.4727 4.19107 14.5862 3.91698C14.6997 3.64289 14.892 3.40862 15.1387 3.2438C15.3853 3.07898 15.6753 2.991 15.972 2.991C16.3698 2.991 16.7514 3.14904 17.0327 3.43034C17.314 3.71165 17.472 4.09318 17.472 4.491Z" fill="#15274B"/>
</svg>
