<?xml version="1.0" standalone="no"?>
<!DOCTYPE svg PUBLIC "-//W3C//DTD SVG 20010904//EN"
 "http://www.w3.org/TR/2001/REC-SVG-20010904/DTD/svg10.dtd">
<svg version="1.0" xmlns="http://www.w3.org/2000/svg"
 width="700.000000pt" height="700.000000pt" viewBox="0 0 700.000000 700.000000"
 preserveAspectRatio="xMidYMid meet">
<metadata>
Created by potrace 1.14, written by Peter Selinger 2001-2017
</metadata>
<g transform="translate(0.000000,700.000000) scale(0.100000,-0.100000)"
fill="#000000" stroke="none">
<path d="M513 6990 c-60 -12 -171 -58 -223 -93 -112 -74 -226 -219 -255 -323
-5 -16 -9 -33 -11 -39 -2 -5 -8 -28 -13 -50 -7 -27 -11 -1122 -11 -3263 l0
-3222 3217 1 c2710 1 3228 3 3283 15 147 31 306 139 389 263 46 69 67 118 91
207 18 67 19 182 19 3292 l1 3222 -3222 -1 c-1773 -1 -3242 -5 -3265 -9z
m6263 -197 c12 -7 23 -23 26 -35 7 -40 1 -5941 -6 -5978 -20 -105 -39 -166
-65 -218 -103 -203 -282 -327 -520 -359 -25 -3 -1384 -6 -3018 -7 -2323 0
-2975 2 -2985 12 -9 9 -12 657 -12 2959 0 1622 3 2980 7 3018 34 359 273 589
637 612 52 3 96 6 97 7 1 0 1310 1 2910 1 2241 0 2913 -3 2929 -12z"/>
<path d="M1393 6319 c-184 -46 -290 -130 -328 -261 -31 -107 -10 -203 63 -295
59 -76 146 -114 452 -202 190 -54 233 -70 268 -100 49 -43 68 -143 39 -212
-68 -160 -380 -215 -549 -98 -56 39 -107 101 -145 177 l-37 73 -70 -5 c-39 -2
-73 -5 -75 -5 -14 -3 12 -130 37 -183 93 -200 311 -296 599 -265 190 21 327
107 391 246 22 47 26 71 26 151 1 113 -20 167 -94 240 -72 72 -124 93 -500
196 -160 44 -181 53 -216 99 -36 48 -42 109 -16 167 39 90 109 118 302 123 94
3 124 0 165 -16 67 -25 110 -71 144 -155 l28 -69 64 3 c85 3 95 14 79 84 -28
118 -89 197 -193 250 -140 70 -300 91 -434 57z"/>
<path d="M4090 6231 c-66 -33 -77 -57 -82 -187 l-3 -89 -45 -13 c-25 -8 -51
-15 -57 -18 -8 -2 -13 -22 -13 -53 l0 -50 44 -6 c77 -12 74 2 78 -385 4 -360
6 -381 50 -427 36 -39 120 -59 224 -55 65 3 74 16 62 89 l-11 63 -41 -3 c-22
-2 -54 1 -70 6 -51 18 -55 43 -56 379 0 267 1 307 15 318 10 9 42 13 84 13
l67 -1 0 59 0 59 -41 1 c-133 3 -125 -8 -125 174 0 117 -3 155 -12 155 -7 -1
-38 -13 -68 -29z"/>
<path d="M2630 5953 c-60 -8 -149 -39 -190 -67 -138 -92 -193 -216 -193 -441
0 -182 27 -273 111 -366 78 -87 224 -143 364 -138 177 6 338 117 395 273 54
150 47 365 -18 501 -69 145 -204 231 -375 239 -38 1 -80 1 -94 -1z m183 -153
c64 -32 105 -75 136 -140 23 -50 26 -67 26 -180 0 -156 -7 -205 -39 -268 -45
-89 -126 -136 -236 -136 -89 -1 -151 26 -207 87 -131 146 -115 484 29 600 82
66 203 81 291 37z"/>
<path d="M3655 5941 c-22 -10 -49 -27 -60 -38 -11 -10 -37 -31 -57 -47 -41
-31 -39 -32 -42 38 l-1 34 -67 1 -68 1 0 -47 c-1 -70 -1 -679 0 -809 l0 -111
75 1 75 0 1 266 c0 146 2 279 5 295 12 90 28 154 46 186 39 70 127 96 216 65
l40 -14 22 61 c13 34 25 68 27 75 7 16 -97 62 -140 62 -18 0 -50 -9 -72 -19z"/>
<path d="M1071 4443 c-7 -13 -9 -230 -8 -662 2 -630 2 -643 22 -657 20 -15
119 -15 143 0 9 5 12 82 12 272 0 145 3 264 8 265 4 0 113 2 242 4 129 2 259
8 288 14 193 39 302 174 307 381 5 216 -110 358 -310 384 -27 3 -195 9 -372
12 -312 6 -321 6 -332 -13z m655 -148 c115 -13 184 -102 184 -237 0 -124 -74
-212 -196 -232 -34 -6 -311 -10 -441 -7 l-33 1 0 240 0 239 108 3 c137 4 313
0 378 -7z"/>
<path d="M3360 3788 l0 -668 74 0 c50 0 75 4 78 13 3 6 3 84 2 171 -3 175 4
204 63 257 63 57 46 72 218 -190 87 -132 165 -243 174 -247 19 -8 181 -12 181
-4 0 3 -90 140 -200 304 l-199 299 83 86 c46 47 124 129 174 181 l91 95 -77 3
c-47 2 -86 -2 -102 -10 -14 -7 -110 -96 -215 -198 l-190 -185 -3 381 -2 381
-75 0 -75 0 0 -669z"/>
<path d="M2583 4100 c-69 -14 -175 -61 -211 -94 -52 -47 -109 -174 -84 -190
15 -9 103 -18 126 -12 12 3 32 24 45 46 44 79 77 103 156 115 170 25 276 -12
308 -109 7 -23 13 -50 12 -61 -1 -11 -2 -30 -3 -41 -1 -13 -13 -26 -29 -32
-23 -9 -177 -40 -328 -66 -242 -42 -329 -119 -328 -291 0 -140 81 -232 228
-260 149 -29 286 0 413 87 24 17 45 28 46 26 2 -1 13 -22 25 -45 30 -61 50
-67 152 -54 4 1 5 16 3 34 -10 103 -15 194 -19 382 -9 364 -10 381 -36 432
-32 61 -87 98 -183 123 -83 21 -213 25 -293 10z m347 -575 c0 -212 -180 -355
-378 -300 -87 25 -132 71 -135 142 -3 80 43 132 133 152 50 11 51 11 200 40
58 11 114 22 125 24 54 12 55 11 55 -58z"/>
<path d="M3946 1211 c-29 -32 5 -72 45 -51 25 14 25 46 0 60 -25 13 -25 13
-45 -9z"/>
<path d="M6170 1150 c0 -33 -2 -60 -4 -60 -2 0 -19 6 -37 14 -105 42 -202 -56
-164 -167 24 -71 94 -102 165 -74 33 13 39 13 44 1 3 -8 15 -12 28 -10 23 3
23 4 26 179 l2 177 -30 0 -30 0 0 -60z m-21 -116 c24 -30 26 -52 10 -87 -19
-42 -79 -56 -114 -27 -26 22 -34 66 -19 96 19 36 31 44 71 44 22 0 38 -8 52
-26z"/>
<path d="M3550 1022 l0 -169 103 2 c87 1 109 5 145 25 105 59 108 217 5 286
-22 15 -52 19 -140 22 l-113 4 0 -170z m219 96 c29 -18 46 -55 45 -97 -2 -72
-42 -108 -124 -111 -88 -4 -81 -14 -79 116 l1 116 69 -6 c37 -3 77 -11 88 -18z"/>
<path d="M4123 1108 c-38 -10 -63 -42 -63 -79 0 -36 25 -55 93 -70 66 -14 74
-21 50 -44 -13 -13 -27 -16 -61 -11 -25 3 -50 10 -57 16 -8 7 -15 3 -23 -15
-10 -21 -8 -26 9 -35 28 -16 109 -22 143 -12 41 11 70 53 62 86 -8 31 -39 53
-87 60 -53 8 -70 17 -67 34 4 21 52 32 91 21 26 -7 34 -6 45 8 22 30 22 30
-88 48 -8 1 -29 -2 -47 -7z"/>
<path d="M4405 1108 c-117 -33 -129 -198 -18 -245 45 -18 113 -12 143 14 25
21 25 32 3 49 -15 10 -21 10 -36 -4 -27 -24 -86 -21 -108 7 -25 31 -24 82 1
109 25 26 81 30 104 7 13 -14 19 -14 42 -2 l26 14 -32 26 c-17 15 -39 27 -48
28 -9 0 -24 2 -32 3 -8 2 -28 -1 -45 -6z"/>
<path d="M4662 1100 c-70 -31 -95 -101 -64 -175 21 -48 59 -70 122 -69 89 0
138 48 135 131 -3 97 -101 154 -193 113z m124 -75 c20 -50 3 -100 -37 -114
-47 -16 -93 9 -100 54 -10 68 48 117 104 89 15 -8 30 -21 33 -29z"/>
<path d="M5254 1109 c-119 -33 -124 -211 -8 -249 40 -13 112 -6 139 14 14 10
16 16 6 34 -11 21 -14 21 -40 8 -37 -19 -91 -12 -113 15 -10 12 -18 24 -18 28
0 3 45 6 100 5 l100 -1 0 31 c0 81 -82 137 -166 115z m89 -70 c9 -12 17 -24
17 -28 0 -4 -31 -7 -70 -7 -73 0 -86 9 -52 38 36 32 77 31 105 -3z"/>
<path d="M5595 1112 c-11 -2 -24 -8 -29 -13 -13 -12 -39 -11 -31 1 4 6 -7 10
-24 10 l-31 0 0 -129 0 -128 28 1 c27 1 27 2 32 84 4 73 8 86 29 103 13 10 32
19 42 19 13 0 19 7 19 24 0 29 -7 34 -35 28z"/>
<path d="M5753 1112 c-60 -10 -110 -100 -92 -166 10 -38 57 -82 95 -92 33 -8
105 4 128 21 18 14 19 16 2 34 -16 17 -20 18 -46 5 -33 -17 -75 -12 -101 12
-34 31 -17 39 82 39 l94 0 -2 34 c-1 19 -7 44 -13 56 -21 40 -90 67 -147 57z
m88 -68 c34 -31 23 -40 -51 -41 -74 0 -87 9 -52 39 34 30 71 31 103 2z"/>
<path d="M3940 982 l0 -128 24 1 c13 0 27 3 31 7 4 4 7 49 7 100 -1 161 2 148
-32 148 l-30 0 0 -128z"/>
<path d="M4870 1106 c0 -5 101 -239 106 -245 2 -2 15 -5 29 -6 30 -4 44 14 79
101 13 32 33 81 45 107 l21 48 -31 -3 c-28 -3 -34 -10 -69 -92 -42 -99 -39
-100 -86 14 -29 69 -34 75 -63 78 -17 2 -31 1 -31 -2z"/>
</g>
</svg>
