<svg width="21" height="22" viewBox="0 0 21 22" fill="none" xmlns="http://www.w3.org/2000/svg">
<path d="M2 14.9549V2.98811H0V0.993652H3C3.26522 0.993652 3.51957 1.09872 3.70711 1.28573C3.89464 1.47275 4 1.7264 4 1.99088V13.9576H16.438L18.438 5.9798H6V3.98534H19.72C19.872 3.98535 20.022 4.01991 20.1586 4.0864C20.2952 4.15289 20.4148 4.24956 20.5083 4.36906C20.6018 4.48857 20.6668 4.62776 20.6983 4.77606C20.7298 4.92436 20.7269 5.07786 20.69 5.2249L18.19 15.1972C18.1358 15.4128 18.0109 15.6043 17.8352 15.741C17.6595 15.8778 17.4429 15.9521 17.22 15.9521H3C2.73478 15.9521 2.48043 15.847 2.29289 15.66C2.10536 15.473 2 15.2194 2 14.9549ZM4 21.9355C3.46957 21.9355 2.96086 21.7254 2.58579 21.3513C2.21071 20.9773 2 20.47 2 19.941C2 19.4121 2.21071 18.9048 2.58579 18.5307C2.96086 18.1567 3.46957 17.9466 4 17.9466C4.53043 17.9466 5.03914 18.1567 5.41421 18.5307C5.78929 18.9048 6 19.4121 6 19.941C6 20.47 5.78929 20.9773 5.41421 21.3513C5.03914 21.7254 4.53043 21.9355 4 21.9355ZM16 21.9355C15.4696 21.9355 14.9609 21.7254 14.5858 21.3513C14.2107 20.9773 14 20.47 14 19.941C14 19.4121 14.2107 18.9048 14.5858 18.5307C14.9609 18.1567 15.4696 17.9466 16 17.9466C16.5304 17.9466 17.0391 18.1567 17.4142 18.5307C17.7893 18.9048 18 19.4121 18 19.941C18 20.47 17.7893 20.9773 17.4142 21.3513C17.0391 21.7254 16.5304 21.9355 16 21.9355Z" fill="#00758B"/>
</svg>
