<svg width="18" height="18" viewBox="0 0 18 18" fill="#15274B" xmlns="http://www.w3.org/2000/svg">
    <path d="M3.457 15.957L12.021 7.39303L10.607 5.97903L2.043 14.543L3.457 15.957ZM9.192 4.56503L7.778 3.15103L9.192 1.73703L10.96 3.50403L13.789 0.676026C13.9765 0.488555 14.2308 0.38324 14.496 0.38324C14.7612 0.38324 15.0155 0.488555 15.203 0.676026L17.324 2.79703C17.5115 2.98455 17.6168 3.23886 17.6168 3.50403C17.6168 3.76919 17.5115 4.0235 17.324 4.21103L14.496 7.04003L16.263 8.80803L14.849 10.222L13.435 8.80803L4.243 18H0V13.757L9.192 4.56503Z"
          />
</svg>
