<svg width="30" height="28" viewBox="0 0 30 28" fill="none" xmlns="http://www.w3.org/2000/svg">
<rect width="30" height="28" rx="8" fill="#ABB0BB"/>
<path d="M15 14C14.0482 14 13.1177 13.7178 12.3263 13.1889C11.5349 12.6601 10.9181 11.9085 10.5538 11.0292C10.1896 10.1498 10.0943 9.18216 10.28 8.24863C10.4657 7.3151 10.924 6.45759 11.5971 5.78455C12.2701 5.11151 13.1276 4.65316 14.0611 4.46747C14.9947 4.28178 15.9623 4.37709 16.8417 4.74133C17.7211 5.10558 18.4727 5.72241 19.0015 6.51382C19.5303 7.30523 19.8125 8.23568 19.8125 9.1875C19.8125 10.4639 19.3055 11.6879 18.403 12.5905C17.5005 13.493 16.2764 14 15 14ZM15 5.75C14.3201 5.75 13.6555 5.95161 13.0902 6.32933C12.525 6.70704 12.0844 7.24391 11.8242 7.87203C11.564 8.50015 11.4959 9.19132 11.6286 9.85812C11.7612 10.5249 12.0886 11.1374 12.5693 11.6182C13.0501 12.0989 13.6626 12.4263 14.3294 12.559C14.9962 12.6916 15.6874 12.6235 16.3155 12.3633C16.9436 12.1032 17.4805 11.6626 17.8582 11.0973C18.2359 10.532 18.4375 9.86738 18.4375 9.1875C18.4375 8.27582 18.0754 7.40148 17.4307 6.75682C16.786 6.11217 15.9117 5.75 15 5.75ZM15 23.625C13.7281 23.6303 12.468 23.3806 11.2942 22.8905C10.1204 22.4005 9.05681 21.6801 8.16627 20.7719C8.07087 20.6752 8.00625 20.5524 7.98055 20.4191C7.95486 20.2857 7.96924 20.1477 8.02189 20.0225C8.59693 18.6459 9.56628 17.4702 10.808 16.6432C12.0496 15.8162 13.5082 15.375 15 15.375C16.4919 15.375 17.9504 15.8162 19.1921 16.6432C20.4338 17.4702 21.4031 18.6459 21.9781 20.0225C22.0308 20.1477 22.0452 20.2857 22.0195 20.4191C21.9938 20.5524 21.9292 20.6752 21.8338 20.7719C20.9432 21.6801 19.8796 22.4005 18.7059 22.8905C17.5321 23.3806 16.272 23.6303 15 23.625ZM9.50002 20.1325C11.0126 21.4854 12.9707 22.2333 15 22.2333C17.0293 22.2333 18.9875 21.4854 20.5 20.1325C19.9795 19.1225 19.1909 18.2754 18.2207 17.6839C17.2505 17.0925 16.1363 16.7796 15 16.7796C13.8638 16.7796 12.7495 17.0925 11.7793 17.6839C10.8091 18.2754 10.0206 19.1225 9.50002 20.1325Z" fill="white"/>
</svg>
